<?xml version="1.0" encoding="UTF-8"?>
<svg width="640px" height="310px" viewBox="0 0 640 310" version="1.1" xmlns="http://www.w3.org/2000/svg" xmlns:xlink="http://www.w3.org/1999/xlink">
    <title>MVC process</title>
    <g id="MVC-process" stroke="none" stroke-width="1" fill="none" fill-rule="evenodd">
        <rect fill="#FFFAE5" x="0" y="0" width="640" height="310"></rect>
        <polygon id="Fill-2" fill="#66C3FF" points="265 81.331 348 81.331 348 32 265 32"></polygon>
        <polygon id="Fill-2-Copy-3" fill="#AEE938" points="268 277.331 345 277.331 345 228 268 228"></polygon>
        <polygon id="Fill-2-Copy" fill="#FF8C00" points="186 179.331 263 179.331 263 130 186 130"></polygon>
        <polygon id="Fill-2-Copy-2" fill="#FFD300" points="338 179.331 453 179.331 453 130 338 130"></polygon>
        <path d="M348.5,31.5 L264.5,31.5 L264.5,81.83 L348.5,81.83 L348.5,31.5 Z M347.5,32.499 L347.5,80.829 L265.5,80.829 L265.5,32.499 L347.5,32.499 Z" id="Stroke-3" fill="#10162F" fill-rule="nonzero"></path>
        <path d="M345.5,227.5 L267.5,227.5 L267.5,277.83 L345.5,277.83 L345.5,227.5 Z M344.5,228.499 L344.5,276.83 L268.5,276.83 L268.5,228.499 L344.5,228.499 Z" id="Stroke-3-Copy-3" fill="#10162F" fill-rule="nonzero"></path>
        <path d="M263.5,129.5 L185.5,129.5 L185.5,179.83 L263.5,179.83 L263.5,129.5 Z M262.5,130.5 L262.5,178.83 L186.5,178.83 L186.5,130.5 L262.5,130.5 Z" id="Stroke-3-Copy" fill="#10162F" fill-rule="nonzero"></path>
        <path d="M453.5,129.5 L337.5,129.5 L337.5,179.83 L453.5,179.83 L453.5,129.5 Z M452.5,130.499 L452.5,178.829 L338.5,178.829 L338.5,130.499 L452.5,130.499 Z" id="Stroke-3-Copy-2" fill="#10162F" fill-rule="nonzero"></path>
        <g id="MODEL" transform="translate(291.090000, 53.620000)" fill="#000000" fill-rule="nonzero">
            <polygon id="M" points="2.97 4.88 4.03 1.06 4.03 7.38 4.98 7.38 4.98 0.13 3.49 0.13 2.49 3.84 1.49 0.13 0 0.13 0 7.38 0.95 7.38 0.95 1.06 2.01 4.88"></polygon>
            <path d="M8.95,0 C7.14,0 6.24,1.56 6.24,3.75 C6.24,5.93 7.14,7.51 8.95,7.51 C10.76,7.51 11.66,5.93 11.66,3.75 C11.66,1.56 10.76,0 8.95,0 Z M8.95,0.88 C10.15,0.88 10.68,1.92 10.68,3.75 C10.68,5.58 10.15,6.63 8.95,6.63 C7.76,6.63 7.22,5.58 7.22,3.75 C7.22,1.92 7.76,0.88 8.95,0.88 Z" id="O"></path>
            <path d="M17.11,3.75 C17.11,6.21 15.68,6.48 14.33,6.48 L14.07,6.48 L14.07,1.03 L14.33,1.03 C15.68,1.03 17.11,1.28 17.11,3.75 Z M13.12,0.13 L13.12,7.38 L14.36,7.38 C16.42,7.38 18.08,6.51 18.08,3.75 C18.08,0.98 16.42,0.13 14.36,0.13 L13.12,0.13 Z" id="D"></path>
            <polygon id="E" points="19.76 7.38 24.08 7.38 24.08 6.48 20.71 6.48 20.71 4.09 23.88 4.09 23.88 3.19 20.71 3.19 20.71 1.03 24.08 1.03 24.08 0.13 19.76 0.13"></polygon>
            <polygon id="L" points="27.3 0.13 26.35 0.13 26.35 7.38 30.86 7.38 30.86 6.48 27.3 6.48"></polygon>
        </g>
        <g id="USER" transform="translate(294.370000, 249.620000)" fill="#000000" fill-rule="nonzero">
            <path d="M0,0.13 L0,4.43 C0,6.69 0.62,7.51 2.43,7.51 C4.32,7.51 4.88,6.47 4.88,4.35 L4.88,0.13 L3.93,0.13 L3.93,4.43 C3.93,5.86 3.68,6.63 2.43,6.63 C1.2,6.63 0.95,5.96 0.95,4.54 L0.95,0.13 L0,0.13 Z" id="U"></path>
            <path d="M8.32,3.96 L9.11,4.15 C9.9,4.33 10.47,4.67 10.47,5.42 C10.47,6.25 9.73,6.63 9.01,6.63 C8.08,6.63 7.4,6.09 7.3,5.12 L6.36,5.12 C6.44,6.56 7.51,7.51 8.98,7.51 C10.38,7.51 11.43,6.7 11.43,5.35 C11.43,3.97 10.41,3.46 9.24,3.2 L8.52,3.04 C7.94,2.91 7.47,2.6 7.47,1.96 C7.47,1.21 8.16,0.88 8.82,0.88 C9.48,0.88 10.23,1.17 10.34,2.04 L11.28,2.04 C11.12,0.6 9.99,0 8.87,0 C7.57,0 6.49,0.74 6.49,1.99 C6.49,3.14 7.37,3.75 8.32,3.96 Z" id="S"></path>
            <polygon id="E" points="13.25 7.38 17.57 7.38 17.57 6.48 14.2 6.48 14.2 4.09 17.37 4.09 17.37 3.19 14.2 3.19 14.2 1.03 17.57 1.03 17.57 0.13 13.25 0.13"></polygon>
            <path d="M23.4,7.38 L24.48,7.38 L22.94,4.14 C23.73,3.89 24.25,3.33 24.25,2.2 C24.25,0.47 23.03,0.13 21.45,0.13 L19.68,0.13 L19.68,7.38 L20.63,7.38 L20.63,4.33 L21.45,4.33 C21.63,4.33 21.81,4.33 21.98,4.32 L23.4,7.38 Z M21.56,1.03 C22.52,1.03 23.27,1.1 23.27,2.22 C23.27,3.34 22.52,3.43 21.56,3.43 L20.63,3.43 L20.63,1.03 L21.56,1.03 Z" id="R"></path>
        </g>
        <g id="VIEW" transform="translate(212.020000, 151.750000)" fill="#10162F" fill-rule="nonzero">
            <polygon id="V" points="2.28 7.25 3.29 7.25 5.57 0 4.55 0 2.78 5.98 1.02 0 0 0"></polygon>
            <polygon id="I" points="6.94 0.9 8.77 0.9 8.77 6.35 6.94 6.35 6.94 7.25 11.55 7.25 11.55 6.35 9.72 6.35 9.72 0.9 11.55 0.9 11.55 0 6.94 0"></polygon>
            <polygon id="E" points="13.6 7.25 17.92 7.25 17.92 6.35 14.55 6.35 14.55 3.96 17.72 3.96 17.72 3.06 14.55 3.06 14.55 0.9 17.92 0.9 17.92 0 13.6 0"></polygon>
            <polygon id="W" points="22.68 2.21 21.65 2.21 20.85 5.87 20.32 0 19.37 0 20.09 7.25 21.33 7.25 22.17 3.47 23.01 7.25 24.24 7.25 24.97 0 24.02 0 23.48 5.87"></polygon>
        </g>
        <g id="CONTROLLER" transform="translate(363.860000, 151.610000)" fill="#10162F" fill-rule="nonzero">
            <path d="M4.17,5.14 C4.04,6.01 3.58,6.64 2.66,6.64 C1.55,6.64 0.98,5.54 0.98,3.75 C0.98,1.9 1.59,0.89 2.64,0.89 C3.56,0.89 4.01,1.61 4.13,2.44 L5.1,2.44 C4.86,0.97 3.92,0 2.67,0 C0.94,0 0,1.5 0,3.75 C0,5.95 0.83,7.52 2.6,7.52 C3.91,7.52 4.87,6.69 5.12,5.14 L4.17,5.14 Z" id="C"></path>
            <path d="M9.03,0.01 C7.22,0.01 6.32,1.57 6.32,3.76 C6.32,5.94 7.22,7.52 9.03,7.52 C10.84,7.52 11.74,5.94 11.74,3.76 C11.74,1.57 10.84,0.01 9.03,0.01 Z M9.03,0.89 C10.23,0.89 10.76,1.93 10.76,3.76 C10.76,5.59 10.23,6.64 9.03,6.64 C7.84,6.64 7.3,5.59 7.3,3.76 C7.3,1.93 7.84,0.89 9.03,0.89 Z" id="O"></path>
            <polygon id="N" points="17.83 7.39 17.83 0.14 16.88 0.14 16.88 6.31 14.56 0.14 13.14 0.14 13.14 7.39 14.09 7.39 14.09 1.2 16.41 7.39"></polygon>
            <polygon id="T" points="21.47 7.39 22.42 7.39 22.42 1.04 24.6 1.04 24.6 0.14 19.29 0.14 19.29 1.04 21.47 1.04"></polygon>
            <path d="M29.99,7.39 L31.07,7.39 L29.53,4.15 C30.32,3.9 30.84,3.34 30.84,2.21 C30.84,0.48 29.62,0.14 28.04,0.14 L26.27,0.14 L26.27,7.39 L27.22,7.39 L27.22,4.34 L28.04,4.34 C28.22,4.34 28.4,4.34 28.57,4.33 L29.99,7.39 Z M28.15,1.04 C29.11,1.04 29.86,1.11 29.86,2.23 C29.86,3.35 29.11,3.44 28.15,3.44 L27.22,3.44 L27.22,1.04 L28.15,1.04 Z" id="R"></path>
            <path d="M34.87,0.01 C33.06,0.01 32.16,1.57 32.16,3.76 C32.16,5.94 33.06,7.52 34.87,7.52 C36.68,7.52 37.58,5.94 37.58,3.76 C37.58,1.57 36.68,0.01 34.87,0.01 Z M34.87,0.89 C36.07,0.89 36.6,1.93 36.6,3.76 C36.6,5.59 36.07,6.64 34.87,6.64 C33.68,6.64 33.14,5.59 33.14,3.76 C33.14,1.93 33.68,0.89 34.87,0.89 Z" id="O"></path>
            <polygon id="L" points="40.3 0.14 39.35 0.14 39.35 7.39 43.86 7.39 43.86 6.49 40.3 6.49"></polygon>
            <polygon id="L" points="46.76 0.14 45.81 0.14 45.81 7.39 50.32 7.39 50.32 6.49 46.76 6.49"></polygon>
            <polygon id="E" points="52.14 7.39 56.46 7.39 56.46 6.49 53.09 6.49 53.09 4.1 56.26 4.1 56.26 3.2 53.09 3.2 53.09 1.04 56.46 1.04 56.46 0.14 52.14 0.14"></polygon>
            <path d="M62.29,7.39 L63.37,7.39 L61.83,4.15 C62.62,3.9 63.14,3.34 63.14,2.21 C63.14,0.48 61.92,0.14 60.34,0.14 L58.57,0.14 L58.57,7.39 L59.52,7.39 L59.52,4.34 L60.34,4.34 C60.52,4.34 60.7,4.34 60.87,4.33 L62.29,7.39 Z M60.45,1.04 C61.41,1.04 62.16,1.11 62.16,2.23 C62.16,3.35 61.41,3.44 60.45,3.44 L59.52,3.44 L59.52,1.04 L60.45,1.04 Z" id="R"></path>
        </g>
        <g id="Group" transform="translate(219.000000, 57.000000)" stroke="#10162F" stroke-linecap="round" stroke-linejoin="round">
            <path d="M46,0 L38.5,0 L12.9265,0 C9.1345,0 6.0325,3.102 6.0325,6.894 C6.0325,13.6791204 6.0325,25.4794411 6.0325,28.4589902 M6.0325,49.9941406 C6.0325,55.059033 6.0325,57.7462153 6.0325,67.876" id="Shape"></path>
            <polyline id="Stroke-3" points="0 62.6945 6.032 68.7265 12.065 62.6945"></polyline>
        </g>
        <g id="Group-5-Copy" transform="translate(244.824375, 218.925625) rotate(-90.000000) translate(-244.824375, -218.925625) translate(205.500000, 198.500000)" stroke="#10162F" stroke-linecap="round" stroke-linejoin="round">
            <path d="M78.64875,5.20482887e-14 L70.52475,5.20482887e-14 C63.9105903,5.20482887e-14 58.9499705,5.20482887e-14 55.6428906,5.20482887e-14 M34.1077402,6.24423769e-13 C29.9455804,6.24423769e-13 22.885167,6.24423769e-13 12.9265,6.24423769e-13 C9.1345,6.24423769e-13 6.0325,3.102 6.0325,6.894 L6.0325,40.00075" id="Shape"></path>
            <polyline id="Stroke-3" points="0 34.81925 6.032 40.85125 12.065 34.81925"></polyline>
        </g>
        <g id="Group-5-Copy" transform="translate(373.574375, 90.675625) rotate(-270.000000) translate(-373.574375, -90.675625) translate(334.250000, 68.750000)" stroke="#10162F" stroke-linecap="round" stroke-linejoin="round">
            <path d="M78.64875,8.93098434e-15 L70.52475,8.93098434e-15 C63.9105903,8.93098434e-15 58.9499705,8.93098434e-15 55.6428906,8.93098434e-15 M34.1077402,4.71782963e-13 C29.9455804,4.71782963e-13 22.885167,4.71782963e-13 12.9265,4.71782963e-13 C9.1345,4.71782963e-13 6.0325,3.102 6.0325,6.894 L6.0325,43.00075" id="Shape"></path>
            <polyline id="Stroke-3" points="2.84217094e-14 37.81925 6.032 43.85125 12.065 37.81925"></polyline>
        </g>
        <g id="Manipulates" transform="translate(367.668000, 93.200000)" fill="#10162F" fill-rule="nonzero">
            <polygon id="M" points="2.376 3.8 3.224 0.744 3.224 5.8 3.984 5.8 3.984 0 2.792 0 1.992 2.968 1.192 0 0 0 0 5.8 0.76 5.8 0.76 0.744 1.608 3.8"></polygon>
            <path d="M6.728,5.904 C7.528,5.904 7.976,5.616 8.24,5.168 L8.248,5.8 L8.952,5.8 C8.928,5.512 8.888,4.896 8.896,4.176 L8.904,3.128 C8.92,1.936 8.408,1.408 7.216,1.408 C6.32,1.408 5.504,1.928 5.432,2.856 L6.184,2.856 C6.232,2.328 6.544,2 7.208,2 C7.768,2 8.176,2.224 8.176,2.968 L8.176,3.152 C6.416,3.344 5.328,3.656 5.328,4.68 C5.328,5.456 5.952,5.904 6.728,5.904 Z M8.232,3.856 C8.232,5 7.592,5.312 6.936,5.312 C6.416,5.312 6.12,5.072 6.12,4.664 C6.12,4.048 6.92,3.864 8.232,3.736 L8.232,3.856 Z" id="a"></path>
            <path d="M11.392,1.496 L10.656,1.496 L10.656,5.8 L11.392,5.8 L11.392,3.464 C11.392,2.544 11.752,2.048 12.416,2.048 C13.216,2.048 13.272,2.624 13.272,3.32 L13.272,5.8 L14.008,5.8 L14.008,3.064 C14.008,2.112 13.696,1.424 12.656,1.424 C11.976,1.424 11.608,1.736 11.392,2.104 L11.392,1.496 Z" id="n"></path>
            <path d="M17.2,0 L17.2,0.872 L17.936,0.872 L17.936,0 L17.2,0 Z M15.984,1.496 L15.984,2.128 L17.2,2.128 L17.2,5.168 L15.984,5.168 L15.984,5.8 L19.16,5.8 L19.16,5.168 L17.936,5.168 L17.936,1.496 L15.984,1.496 Z" id="i"></path>
            <path d="M21.696,1.496 L20.96,1.496 L20.96,7.2 L21.696,7.2 L21.696,5.192 C21.936,5.6 22.328,5.904 22.968,5.904 C23.96,5.904 24.704,5.088 24.704,3.664 C24.704,2.248 23.96,1.424 22.968,1.424 C22.328,1.424 21.936,1.728 21.696,2.144 L21.696,1.496 Z M21.664,3.664 C21.664,2.528 22.2,2.04 22.816,2.04 C23.552,2.04 23.928,2.64 23.928,3.664 C23.928,4.688 23.552,5.296 22.816,5.296 C22.2,5.296 21.664,4.8 21.664,3.664 Z" id="p"></path>
            <path d="M28.76,5.8 L29.496,5.8 L29.496,1.496 L28.76,1.496 L28.76,3.864 C28.76,4.784 28.4,5.272 27.736,5.272 C26.936,5.272 26.896,4.704 26.896,4.008 L26.896,1.496 L26.16,1.496 L26.16,4.264 C26.16,5.216 26.456,5.904 27.496,5.904 C28.184,5.904 28.528,5.616 28.76,5.248 L28.76,5.8 Z" id="u"></path>
            <polygon id="l" points="31.44 0 31.44 0.624 32.656 0.624 32.656 5.168 31.44 5.168 31.44 5.8 34.616 5.8 34.616 5.168 33.392 5.168 33.392 0"></polygon>
            <path d="M37.736,5.904 C38.536,5.904 38.984,5.616 39.248,5.168 L39.256,5.8 L39.96,5.8 C39.936,5.512 39.896,4.896 39.904,4.176 L39.912,3.128 C39.928,1.936 39.416,1.408 38.224,1.408 C37.328,1.408 36.512,1.928 36.44,2.856 L37.192,2.856 C37.24,2.328 37.552,2 38.216,2 C38.776,2 39.184,2.224 39.184,2.968 L39.184,3.152 C37.424,3.344 36.336,3.656 36.336,4.68 C36.336,5.456 36.96,5.904 37.736,5.904 Z M39.24,3.856 C39.24,5 38.6,5.312 37.944,5.312 C37.424,5.312 37.128,5.072 37.128,4.664 C37.128,4.048 37.928,3.864 39.24,3.736 L39.24,3.856 Z" id="a"></path>
            <path d="M42.328,1.496 L41.104,1.496 L41.104,2.128 L42.328,2.128 L42.328,4.72 C42.328,5.616 42.552,5.8 43.336,5.8 L44.824,5.8 L44.824,5.168 L43.496,5.168 C43.088,5.168 43.064,5.056 43.064,4.616 L43.064,2.128 L44.824,2.128 L44.824,1.496 L43.064,1.496 L43.064,0.416 L42.328,0.416 L42.328,1.496 Z" id="t"></path>
            <path d="M48.528,5.904 C49.536,5.904 50.208,5.328 50.384,4.512 L49.624,4.512 C49.472,5 49.152,5.304 48.512,5.304 C47.832,5.304 47.352,4.736 47.352,3.872 L50.448,3.872 C50.504,2.336 49.784,1.416 48.528,1.416 C47.392,1.416 46.576,2.28 46.576,3.664 C46.576,4.936 47.224,5.904 48.528,5.904 Z M48.528,2.024 C49.28,2.024 49.672,2.56 49.664,3.264 L47.36,3.264 C47.392,2.432 47.832,2.024 48.528,2.024 Z" id="e"></path>
            <path d="M55.328,2.672 C55.168,1.904 54.544,1.424 53.632,1.424 C52.912,1.424 52.008,1.784 52.008,2.616 C52.008,3.36 52.544,3.696 53.224,3.832 L53.76,3.936 C54.304,4.032 54.664,4.232 54.664,4.632 C54.664,5.136 54.16,5.296 53.704,5.296 C53.104,5.296 52.8,5.008 52.704,4.512 L51.928,4.512 C52.008,5.2 52.568,5.904 53.688,5.904 C54.624,5.904 55.408,5.456 55.408,4.544 C55.408,3.68 54.608,3.4 53.864,3.256 L53.384,3.16 C52.96,3.072 52.736,2.92 52.736,2.584 C52.736,2.2 53.168,2.032 53.6,2.032 C54.088,2.032 54.464,2.192 54.56,2.672 L55.328,2.672 Z" id="s"></path>
        </g>
        <g id="Updates" transform="translate(207.044000, 93.200000)" fill="#10162F" fill-rule="nonzero">
            <path d="M0,0 L0,3.44 C0,5.248 0.496,5.904 1.944,5.904 C3.456,5.904 3.904,5.072 3.904,3.376 L3.904,0 L3.144,0 L3.144,3.44 C3.144,4.584 2.944,5.2 1.944,5.2 C0.96,5.2 0.76,4.664 0.76,3.528 L0.76,0 L0,0 Z" id="U"></path>
            <path d="M6.152,1.496 L5.416,1.496 L5.416,7.2 L6.152,7.2 L6.152,5.192 C6.392,5.6 6.784,5.904 7.424,5.904 C8.416,5.904 9.16,5.088 9.16,3.664 C9.16,2.248 8.416,1.424 7.424,1.424 C6.784,1.424 6.392,1.728 6.152,2.144 L6.152,1.496 Z M6.12,3.664 C6.12,2.528 6.656,2.04 7.272,2.04 C8.008,2.04 8.384,2.64 8.384,3.664 C8.384,4.688 8.008,5.296 7.272,5.296 C6.656,5.296 6.12,4.8 6.12,3.664 Z" id="p"></path>
            <path d="M13.256,2.144 C13.016,1.728 12.632,1.424 11.984,1.424 C10.992,1.424 10.248,2.248 10.248,3.664 C10.248,5.088 10.992,5.904 11.984,5.904 C12.632,5.904 13.016,5.6 13.256,5.192 L13.264,5.8 L13.992,5.8 L13.992,0 L13.256,0 L13.256,2.144 Z M13.288,3.664 C13.288,4.792 12.752,5.296 12.136,5.296 C11.4,5.296 11.024,4.688 11.024,3.664 C11.024,2.64 11.4,2.04 12.136,2.04 C12.752,2.04 13.288,2.528 13.288,3.664 Z" id="d"></path>
            <path d="M17.024,5.904 C17.824,5.904 18.272,5.616 18.536,5.168 L18.544,5.8 L19.248,5.8 C19.224,5.512 19.184,4.896 19.192,4.176 L19.2,3.128 C19.216,1.936 18.704,1.408 17.512,1.408 C16.616,1.408 15.8,1.928 15.728,2.856 L16.48,2.856 C16.528,2.328 16.84,2 17.504,2 C18.064,2 18.472,2.224 18.472,2.968 L18.472,3.152 C16.712,3.344 15.624,3.656 15.624,4.68 C15.624,5.456 16.248,5.904 17.024,5.904 Z M18.528,3.856 C18.528,5 17.888,5.312 17.232,5.312 C16.712,5.312 16.416,5.072 16.416,4.664 C16.416,4.048 17.216,3.864 18.528,3.736 L18.528,3.856 Z" id="a"></path>
            <path d="M21.616,1.496 L20.392,1.496 L20.392,2.128 L21.616,2.128 L21.616,4.72 C21.616,5.616 21.84,5.8 22.624,5.8 L24.112,5.8 L24.112,5.168 L22.784,5.168 C22.376,5.168 22.352,5.056 22.352,4.616 L22.352,2.128 L24.112,2.128 L24.112,1.496 L22.352,1.496 L22.352,0.416 L21.616,0.416 L21.616,1.496 Z" id="t"></path>
            <path d="M27.816,5.904 C28.824,5.904 29.496,5.328 29.672,4.512 L28.912,4.512 C28.76,5 28.44,5.304 27.8,5.304 C27.12,5.304 26.64,4.736 26.64,3.872 L29.736,3.872 C29.792,2.336 29.072,1.416 27.816,1.416 C26.68,1.416 25.864,2.28 25.864,3.664 C25.864,4.936 26.512,5.904 27.816,5.904 Z M27.816,2.024 C28.568,2.024 28.96,2.56 28.952,3.264 L26.648,3.264 C26.68,2.432 27.12,2.024 27.816,2.024 Z" id="e"></path>
            <path d="M34.616,2.672 C34.456,1.904 33.832,1.424 32.92,1.424 C32.2,1.424 31.296,1.784 31.296,2.616 C31.296,3.36 31.832,3.696 32.512,3.832 L33.048,3.936 C33.592,4.032 33.952,4.232 33.952,4.632 C33.952,5.136 33.448,5.296 32.992,5.296 C32.392,5.296 32.088,5.008 31.992,4.512 L31.216,4.512 C31.296,5.2 31.856,5.904 32.976,5.904 C33.912,5.904 34.696,5.456 34.696,4.544 C34.696,3.68 33.896,3.4 33.152,3.256 L32.672,3.16 C32.248,3.072 32.024,2.92 32.024,2.584 C32.024,2.2 32.456,2.032 32.888,2.032 C33.376,2.032 33.752,2.192 33.848,2.672 L34.616,2.672 Z" id="s"></path>
        </g>
        <g id="Sees" transform="translate(214.716000, 210.096000)" fill="#10162F" fill-rule="nonzero">
            <path d="M1.568,3.168 L2.2,3.32 C2.832,3.464 3.288,3.736 3.288,4.336 C3.288,5 2.696,5.304 2.12,5.304 C1.376,5.304 0.832,4.872 0.752,4.096 L0,4.096 C0.064,5.248 0.92,6.008 2.096,6.008 C3.216,6.008 4.056,5.36 4.056,4.28 C4.056,3.176 3.24,2.768 2.304,2.56 L1.728,2.432 C1.264,2.328 0.888,2.08 0.888,1.568 C0.888,0.968 1.44,0.704 1.968,0.704 C2.496,0.704 3.096,0.936 3.184,1.632 L3.936,1.632 C3.808,0.48 2.904,0 2.008,0 C0.968,0 0.104,0.592 0.104,1.592 C0.104,2.512 0.808,3 1.568,3.168 Z" id="S"></path>
            <path d="M7.224,6.008 C8.232,6.008 8.904,5.432 9.08,4.616 L8.32,4.616 C8.168,5.104 7.848,5.408 7.208,5.408 C6.528,5.408 6.048,4.84 6.048,3.976 L9.144,3.976 C9.2,2.44 8.48,1.52 7.224,1.52 C6.088,1.52 5.272,2.384 5.272,3.768 C5.272,5.04 5.92,6.008 7.224,6.008 Z M7.224,2.128 C7.976,2.128 8.368,2.664 8.36,3.368 L6.056,3.368 C6.088,2.536 6.528,2.128 7.224,2.128 Z" id="e"></path>
            <path d="M12.392,6.008 C13.4,6.008 14.072,5.432 14.248,4.616 L13.488,4.616 C13.336,5.104 13.016,5.408 12.376,5.408 C11.696,5.408 11.216,4.84 11.216,3.976 L14.312,3.976 C14.368,2.44 13.648,1.52 12.392,1.52 C11.256,1.52 10.44,2.384 10.44,3.768 C10.44,5.04 11.088,6.008 12.392,6.008 Z M12.392,2.128 C13.144,2.128 13.536,2.664 13.528,3.368 L11.224,3.368 C11.256,2.536 11.696,2.128 12.392,2.128 Z" id="e"></path>
            <path d="M19.192,2.776 C19.032,2.008 18.408,1.528 17.496,1.528 C16.776,1.528 15.872,1.888 15.872,2.72 C15.872,3.464 16.408,3.8 17.088,3.936 L17.624,4.04 C18.168,4.136 18.528,4.336 18.528,4.736 C18.528,5.24 18.024,5.4 17.568,5.4 C16.968,5.4 16.664,5.112 16.568,4.616 L15.792,4.616 C15.872,5.304 16.432,6.008 17.552,6.008 C18.488,6.008 19.272,5.56 19.272,4.648 C19.272,3.784 18.472,3.504 17.728,3.36 L17.248,3.264 C16.824,3.176 16.6,3.024 16.6,2.688 C16.6,2.304 17.032,2.136 17.464,2.136 C17.952,2.136 18.328,2.296 18.424,2.776 L19.192,2.776 Z" id="s"></path>
        </g>
        <g id="Uses" transform="translate(385.796000, 210.200000)" fill="#10162F" fill-rule="nonzero">
            <path d="M0,0 L0,3.44 C0,5.248 0.496,5.904 1.944,5.904 C3.456,5.904 3.904,5.072 3.904,3.376 L3.904,0 L3.144,0 L3.144,3.44 C3.144,4.584 2.944,5.2 1.944,5.2 C0.96,5.2 0.76,4.664 0.76,3.528 L0.76,0 L0,0 Z" id="U"></path>
            <path d="M8.776,2.672 C8.616,1.904 7.992,1.424 7.08,1.424 C6.36,1.424 5.456,1.784 5.456,2.616 C5.456,3.36 5.992,3.696 6.672,3.832 L7.208,3.936 C7.752,4.032 8.112,4.232 8.112,4.632 C8.112,5.136 7.608,5.296 7.152,5.296 C6.552,5.296 6.248,5.008 6.152,4.512 L5.376,4.512 C5.456,5.2 6.016,5.904 7.136,5.904 C8.072,5.904 8.856,5.456 8.856,4.544 C8.856,3.68 8.056,3.4 7.312,3.256 L6.832,3.16 C6.408,3.072 6.184,2.92 6.184,2.584 C6.184,2.2 6.616,2.032 7.048,2.032 C7.536,2.032 7.912,2.192 8.008,2.672 L8.776,2.672 Z" id="s"></path>
            <path d="M12.312,5.904 C13.32,5.904 13.992,5.328 14.168,4.512 L13.408,4.512 C13.256,5 12.936,5.304 12.296,5.304 C11.616,5.304 11.136,4.736 11.136,3.872 L14.232,3.872 C14.288,2.336 13.568,1.416 12.312,1.416 C11.176,1.416 10.36,2.28 10.36,3.664 C10.36,4.936 11.008,5.904 12.312,5.904 Z M12.312,2.024 C13.064,2.024 13.456,2.56 13.448,3.264 L11.144,3.264 C11.176,2.432 11.616,2.024 12.312,2.024 Z" id="e"></path>
            <path d="M19.112,2.672 C18.952,1.904 18.328,1.424 17.416,1.424 C16.696,1.424 15.792,1.784 15.792,2.616 C15.792,3.36 16.328,3.696 17.008,3.832 L17.544,3.936 C18.088,4.032 18.448,4.232 18.448,4.632 C18.448,5.136 17.944,5.296 17.488,5.296 C16.888,5.296 16.584,5.008 16.488,4.512 L15.712,4.512 C15.792,5.2 16.352,5.904 17.472,5.904 C18.408,5.904 19.192,5.456 19.192,4.544 C19.192,3.68 18.392,3.4 17.648,3.256 L17.168,3.16 C16.744,3.072 16.52,2.92 16.52,2.584 C16.52,2.2 16.952,2.032 17.384,2.032 C17.872,2.032 18.248,2.192 18.344,2.672 L19.112,2.672 Z" id="s"></path>
        </g>
        <g id="Group" transform="translate(373.250000, 218.363250) rotate(-180.000000) translate(-373.250000, -218.363250) translate(345.000000, 184.000000)" stroke="#10162F" stroke-linecap="round" stroke-linejoin="round">
            <path d="M56.5,0 L38.5,0 L12.9265,0 C9.1345,0 6.0325,3.102 6.0325,6.894 C6.0325,13.6791204 6.0325,25.4794411 6.0325,28.4589902 M6.0325,49.9941406 C6.0325,55.059033 6.0325,57.7462153 6.0325,67.876" id="Shape"></path>
            <polyline id="Stroke-3" points="6.6166623e-14 62.6945 6.032 68.7265 12.065 62.6945"></polyline>
        </g>
        <path d="M640,0 L640,310 L0,310 L0,0 L640,0 Z M639,1 L1,1 L1,309 L639,309 L639,1 Z" id="Rectangle" fill="#10162F" fill-rule="nonzero"></path>
    </g>
</svg>